<svg width="21" height="21" viewBox="0 0 21 21" fill="none" xmlns="http://www.w3.org/2000/svg">
<path d="M20.0081 9.59782V7.08587H18.1285V0.053051H14.8311V7.08587H14.5214H10.3321L6.04987 0.141802L5.99503 0.0527344H2.38766V7.08555H0.508057V9.5975H2.38766V10.8657H0.508057V13.3776H2.38766V20.2317H5.68536V13.3783H6.05019H10.2947L14.5211 20.2323H14.5214H18.1285V13.3783H20.0081V10.8663H18.1285V9.59814H20.0081V9.59782ZM5.68536 5.90359L6.05019 6.49473L6.4147 7.08587H6.05019H5.68536V5.90359ZM6.05019 10.8663H5.68536V9.59814H6.05019H7.9637L8.74566 10.8663H6.05019ZM14.8311 14.3821L14.5214 13.88L14.2117 13.3783H14.5214H14.8311V14.3821ZM14.8311 10.8663H14.5214H12.663L11.8811 9.59814H14.5214H14.8311V10.8663Z" fill="#0033A1"/>
</svg>
